<svg xmlns="http://www.w3.org/2000/svg" xmlns:xlink="http://www.w3.org/1999/xlink" width="24" height="auto" viewBox="0 0 72 104.5"><defs><style>.a{isolation:isolate;}.b,.g,.h,.i{opacity:0.2;}.c{fill:#ef7a37;}.d{fill:#874321;}.e{opacity:0.3;}.f{fill:#efefef;}.g,.h,.i{mix-blend-mode:multiply;}.g{fill:url(#a);}.h{fill:url(#b);}.i{fill:url(#c);}</style><linearGradient id="a" x1="51.88" y1="36.3" x2="46.49" y2="30.91" gradientUnits="userSpaceOnUse"><stop offset="0" stop-color="#fff"/><stop offset="1"/></linearGradient><linearGradient id="b" x1="47.39" y1="40.69" x2="42.06" y2="35.36" xlink:href="#a"/><linearGradient id="c" x1="51.73" y1="40.58" x2="48.79" y2="37.64" xlink:href="#a"/></defs><title>ic_lgd_book</title><g class="a"><path class="b" d="M72,3.5v98a3,3,0,0,1-3,3H0v-16H4v-4H0v-4H4v-4H0v-4H4v-4H0v-4H4v-4H0v-4H4v-4H0v-4H4v-4H0v-4H4v-4H0v-4H4v-4H0v-4H4v-4H0v-4H4v-4H0V.5H69A3,3,0,0,1,72,3.5Z"/><path class="c" d="M72,3v98a3,3,0,0,1-3,3H0V88H4V84H0V80H4V76H0V72H4V68H0V64H4V60H0V56H4V52H0V48H4V44H0V40H4V36H0V32H4V28H0V24H4V20H0V16H4V12H0V0H69A3,3,0,0,1,72,3Z"/><polygon class="d" points="12 0 12 104 0 104 0 88 4 88 4 84 0 84 0 79.99 4 79.99 4 75.99 0 75.99 0 72 4 72 4 68 0 68 0 64 4 64 4 60 0 60 0 56 4 56 4 52 0 52 0 48 4 48 4 44 0 44 0 40 4 40 4 36 0 36 0 32 4 32 4 28 0 28 0 24 4 24 4 20 0 20 0 16 4 16 4 12 0 12 0 0 12 0"/><g class="e"><path d="M47,50.85l-1-2.24q-1.76-3.83-3.52-7.66a.69.69,0,0,0-.32-.3l-9.67-4.44-.18-.09,2-.9,7.91-3.63a.73.73,0,0,0,.33-.33q2.21-4.8,4.41-9.6L47,21.4l.14.28,4.38,9.56a.69.69,0,0,0,.37.37L61.41,36l.3.14-3,1.39-6.79,3.11a.72.72,0,0,0-.39.39q-2.18,4.78-4.38,9.56Zm0-20.19c-.55,1.2-1.07,2.34-1.6,3.48a.74.74,0,0,1-.33.33c-.78.37-1.57.73-2.36,1.09l-1.11.52.29.14c1.06.49,2.12,1,3.18,1.47a.74.74,0,0,1,.33.33c.45.95.88,1.9,1.31,2.86l.29.61.17-.35c.48-1,.94-2.07,1.43-3.1a.81.81,0,0,1,.35-.34c.42-.22.86-.4,1.29-.6l2.16-1L52.16,36,49,34.5a.68.68,0,0,1-.39-.38c-.18-.44-.39-.86-.59-1.29Z"/><path d="M40.76,22.43l-1.09.5c-.8.37-1.61.73-2.41,1.11a.79.79,0,0,0-.35.34c-.5,1.06-1,2.14-1.48,3.2l-.14.29-.79-1.71c-.27-.59-.53-1.18-.81-1.76a.84.84,0,0,0-.36-.36c-1.06-.5-2.14-1-3.2-1.48l-.26-.13.2-.11c1.07-.49,2.14-1,3.21-1.47a.81.81,0,0,0,.44-.44c.51-1.13,1-2.26,1.57-3.43l.14.29c.49,1.06,1,2.12,1.46,3.18a.68.68,0,0,0,.37.37Z"/><path d="M35.31,44.36l.87,1.88c.25.55.49,1.1.76,1.64a.71.71,0,0,0,.31.31c1.07.5,2.15,1,3.23,1.49l.28.14-1.74.8c-.59.27-1.18.53-1.76.82a.75.75,0,0,0-.33.33c-.5,1.06-1,2.14-1.48,3.2l-.14.28c-.06-.11-.11-.19-.15-.28-.48-1.05-1-2.1-1.44-3.16a.75.75,0,0,0-.4-.41l-3.46-1.58.4-.19c1-.48,2.07-.94,3.1-1.43a.74.74,0,0,0,.33-.33C34.22,46.72,34.75,45.57,35.31,44.36Z"/><path d="M23.74,41.56l-.29-.63c-.44-1-.87-1.91-1.32-2.86a.74.74,0,0,0-.32-.33c-1-.49-2.07-1-3.11-1.43l-.4-.19,2.32-1.07c.41-.19.82-.36,1.22-.56a.68.68,0,0,0,.29-.29c.51-1.09,1-2.19,1.51-3.28l.11-.23.16.32c.48,1.05,1,2.11,1.45,3.16a.78.78,0,0,0,.35.34c1.15.54,2.3,1.07,3.5,1.62l-.83.39c-.9.41-1.79.81-2.68,1.24a.7.7,0,0,0-.31.31c-.5,1.06-1,2.12-1.46,3.18Z"/></g><path class="f" d="M47,50.63l-1-2.24q-1.76-3.83-3.52-7.66a.69.69,0,0,0-.32-.3L32.44,36l-.18-.09,2-.9,7.91-3.63a.73.73,0,0,0,.33-.33q2.21-4.8,4.41-9.6l.13-.26.14.28L51.49,31a.69.69,0,0,0,.37.37l9.56,4.38.3.14-3,1.39-6.79,3.11a.72.72,0,0,0-.39.39q-2.18,4.78-4.38,9.56Z"/><path class="f" d="M40.76,22.21l-1.09.5c-.8.37-1.61.73-2.41,1.11a.79.79,0,0,0-.35.34c-.5,1.06-1,2.14-1.48,3.2l-.14.29-.79-1.71c-.27-.59-.53-1.18-.81-1.76a.84.84,0,0,0-.36-.36c-1.06-.5-2.14-1-3.2-1.48l-.26-.13.2-.11c1.07-.49,2.14-1,3.21-1.47a.81.81,0,0,0,.44-.44c.51-1.13,1-2.26,1.57-3.43l.14.29c.49,1.06,1,2.12,1.46,3.18a.68.68,0,0,0,.37.37Z"/><path class="f" d="M35.31,44.14,36.17,46c.25.55.49,1.1.76,1.64a.71.71,0,0,0,.31.31c1.07.5,2.15,1,3.23,1.49l.28.14L39,50.4c-.59.27-1.18.53-1.76.82a.75.75,0,0,0-.33.33c-.5,1.06-1,2.14-1.48,3.2l-.14.28c-.06-.11-.11-.19-.15-.28-.48-1.05-1-2.1-1.44-3.16a.75.75,0,0,0-.4-.41L29.86,49.6l.4-.19c1-.48,2.07-.94,3.1-1.43a.74.74,0,0,0,.33-.33C34.22,46.5,34.75,45.35,35.31,44.14Z"/><path class="f" d="M23.74,41.34l-.29-.63c-.44-1-.87-1.91-1.32-2.86a.74.74,0,0,0-.32-.33c-1-.49-2.07-1-3.11-1.43l-.4-.19,2.32-1.07c.41-.19.82-.36,1.22-.56a.68.68,0,0,0,.29-.29c.51-1.09,1-2.19,1.51-3.28l.11-.23.16.32c.48,1.05,1,2.11,1.45,3.16a.78.78,0,0,0,.35.34c1.15.54,2.3,1.07,3.5,1.62l-.83.39c-.9.41-1.79.81-2.68,1.24a.7.7,0,0,0-.31.31c-.5,1.06-1,2.12-1.46,3.18Z"/><path class="g" d="M48.56,33.88a.68.68,0,0,0,.39.38l3.21,1.47.19.09c-2.5-2.49-5.34-5.34-5.37-5.4l1,2.16C48.17,33,48.38,33.44,48.56,33.88Z"/><path class="h" d="M46.69,40.63c-.44-1-.87-1.91-1.31-2.86a.74.74,0,0,0-.33-.33c-1.06-.5-2.12-1-3.18-1.47l-.29-.14c.07,0,2.73,2.68,5.36,5.31Z"/><path class="i" d="M52.37,35.85l-2.15,1c-.43.2-.87.38-1.29.6a.81.81,0,0,0-.35.34c-.49,1-1,2.07-1.43,3.1l-.16.32,2.95,3,1.54-3.37a.72.72,0,0,1,.39-.39l3.48-1.59Z"/><path class="e" d="M47,30.64c-.55,1.2-1.07,2.34-1.6,3.48a.74.74,0,0,1-.33.33c-.78.37-1.57.73-2.36,1.09l-1.11.52.29.14c1.06.49,2.12,1,3.18,1.47a.74.74,0,0,1,.33.33c.45.95.88,1.9,1.31,2.86l.29.61.17-.35c.48-1,.94-2.07,1.43-3.1a.81.81,0,0,1,.35-.34c.42-.22.86-.4,1.29-.6l2.16-1L52.16,36,49,34.48a.68.68,0,0,1-.39-.38c-.18-.44-.39-.86-.59-1.29Z"/><path class="c" d="M47,30.43c-.55,1.2-1.07,2.34-1.6,3.48a.74.74,0,0,1-.33.33c-.78.37-1.57.73-2.36,1.09l-1.11.52.29.14c1.06.49,2.12,1,3.18,1.47a.74.74,0,0,1,.33.33c.45.95.88,1.9,1.31,2.86l.29.61.17-.35c.48-1,.94-2.07,1.43-3.1a.81.81,0,0,1,.35-.34c.42-.22.86-.4,1.29-.6l2.16-1-.22-.11L49,34.27a.68.68,0,0,1-.39-.38c-.18-.44-.39-.86-.59-1.29Z"/></g></svg>